# xmcd CD database file
# Copyright (C) 1996 Ti Kan
#
# Track frame offsets:
# 	182
# 	15090
# 	38367
# 	50930
# 	67262
# 	82345
# 	99115
# 	118957
# 	168975
# 	189697
# 	216717
# 	229257
#
# Disc length: 3222 seconds
#
# Revision: 1
# Processed by: cddbd v1.4b41PL1 Copyright (c) Steve Scherf et al.
# Submitted via: DiscPlay 3.4.1
#
DISCID=ac0c940c
DTITLE=J. Monque'D - Butter Churnin' Man
DYEAR=1900
DGENRE=
TTITLE0=Hurricane
TTITLE1=Rice And Gravy Fever
TTITLE2=Alone In This World
TTITLE3=Ain't Evil No More
TTITLE4=Gentilly Lilly
TTITLE5=Key To The Highway
TTITLE6=Next Time You See Me
TTITLE7=Butter Churnin' Man
TTITLE8=Killing Floor
TTITLE9=Chromatic Fever
TTITLE10=Eastaboga Boogie Man
TTITLE11=Itchy Kitchy Koo
EXTD=
EXTT0=J. Monque'D, 1986 - Reel Blues Music, BMI
EXTT1=J. Monque'D, 1986 - Reel Blues Music, BMI
EXTT2=J. Monque'D, 1987 - Reel Blues Music, BMI
EXTT3=J. Monque'D and Gaz Mayall, 1987 - Reel Blues Music, BMI
EXTT4=J. Monque'D, 1993 - Reel Blues Music, BMI
EXTT5=Big Bill Broonzy
EXTT6=Herman "Little Junior" Parker
EXTT7=J. Monque'D, 1993 - Reel Blues Music, BMI
EXTT8=Chester "Howlin' Wolf" Burnett - ARC Music, BMI
EXTT9=J. Monque'D, 1993 - Reel Blues Music, BMI
EXTT10=J. Monque'D, 1993 - Reel Blues Music, BMI
EXTT11=J. Monque'D, 1993 - Reel Blues Music, BMI
PLAYORDER=
